<svg xmlns="http://www.w3.org/2000/svg" xmlns:xlink="http://www.w3.org/1999/xlink" preserveAspectRatio="xMidYMid" width="18" height="29" viewBox="0 0 18 29">
  <defs>
    <style>
      .cls-1 {
        fill: #fff;
        fill-rule: evenodd;
      }
    </style>
  </defs>
  <path d="M7.744,1.256 L7.744,24.714 L2.144,19.116 C1.654,18.626 0.859,18.626 0.368,19.116 C-0.122,19.607 -0.122,20.402 0.368,20.892 L8.112,28.632 C8.602,29.122 9.398,29.122 9.888,28.632 L17.632,20.892 C17.877,20.646 18.000,20.325 18.000,20.004 C18.000,19.683 17.877,19.362 17.632,19.116 C17.142,18.626 16.347,18.626 15.856,19.116 L10.256,24.714 L10.256,1.256 C10.256,0.562 9.694,0.000 9.000,0.000 C8.307,0.000 7.744,0.562 7.744,1.256 Z" class="cls-1"/>
</svg>
