<svg xmlns="http://www.w3.org/2000/svg" xmlns:xlink="http://www.w3.org/1999/xlink" preserveAspectRatio="xMidYMid" width="27.18" height="27.18" viewBox="0 0 27.18 27.18">
  <defs>
    <style>
      .cls-1 {
        fill: #a2a2a2;
        fill-rule: evenodd;
      }
    </style>
  </defs>
  <path d="M10.712,14.200 L12.234,12.679 L12.234,18.340 C12.234,19.089 12.841,19.697 13.591,19.697 C14.340,19.697 14.948,19.089 14.948,18.340 L14.948,12.679 L16.469,14.200 C16.999,14.730 17.859,14.730 18.388,14.200 C18.918,13.670 18.918,12.811 18.388,12.281 L14.550,8.443 L14.551,8.443 C14.285,8.177 13.938,8.045 13.591,8.045 C13.417,8.045 13.243,8.078 13.081,8.144 C12.916,8.211 12.763,8.310 12.631,8.443 L8.793,12.281 C8.263,12.810 8.263,13.670 8.793,14.200 C9.322,14.731 10.182,14.731 10.712,14.200 ZM6.806,25.342 C13.296,29.090 21.596,26.866 25.342,20.375 C29.090,13.885 26.867,5.585 20.376,1.837 C13.886,-1.910 5.585,0.314 1.838,6.805 C-1.910,13.295 0.315,21.595 6.806,25.342 ZM4.189,8.162 C7.187,2.969 13.827,1.190 19.019,4.188 C24.211,7.186 25.991,13.826 22.993,19.018 C19.995,24.211 13.356,25.990 8.163,22.991 C2.970,19.994 1.191,13.354 4.189,8.162 Z" class="cls-1"/>
</svg>
