<svg xmlns="http://www.w3.org/2000/svg" xmlns:xlink="http://www.w3.org/1999/xlink" preserveAspectRatio="xMidYMid" width="19" height="19" viewBox="0 0 19 19">
  <defs>
    <style>
      .cls-1 {
        fill: #dcdcdc;
        fill-rule: evenodd;
      }
    </style>
  </defs>
  <path d="M18.991,14.995 C19.031,15.303 18.937,15.572 18.709,15.800 L16.034,18.457 C15.913,18.591 15.756,18.705 15.561,18.799 C15.367,18.893 15.176,18.953 14.988,18.980 C14.975,18.980 14.934,18.983 14.867,18.990 C14.800,18.997 14.713,19.000 14.606,19.000 C14.351,19.000 13.939,18.956 13.369,18.869 C12.799,18.782 12.102,18.567 11.277,18.225 C10.452,17.883 9.517,17.370 8.471,16.685 C7.425,16.001 6.312,15.062 5.132,13.868 C4.193,12.942 3.416,12.056 2.799,11.211 C2.182,10.365 1.686,9.584 1.311,8.866 C0.935,8.148 0.653,7.497 0.466,6.914 C0.278,6.330 0.151,5.827 0.084,5.404 C0.016,4.981 -0.010,4.650 0.003,4.408 C0.016,4.167 0.023,4.033 0.023,4.005 C0.050,3.818 0.110,3.626 0.204,3.432 C0.298,3.238 0.412,3.080 0.546,2.959 L3.221,0.282 C3.409,0.094 3.624,-0.000 3.865,-0.000 C4.039,-0.000 4.193,0.051 4.328,0.151 C4.462,0.252 4.576,0.376 4.669,0.524 L6.822,4.610 C6.942,4.824 6.976,5.059 6.922,5.314 C6.869,5.569 6.755,5.783 6.580,5.958 L5.595,6.944 C5.568,6.971 5.544,7.014 5.524,7.075 C5.504,7.135 5.494,7.185 5.494,7.225 C5.548,7.507 5.668,7.830 5.856,8.192 C6.017,8.514 6.265,8.906 6.600,9.369 C6.936,9.832 7.412,10.365 8.029,10.970 C8.632,11.587 9.168,12.066 9.638,12.409 C10.107,12.751 10.499,13.002 10.814,13.163 C11.129,13.325 11.371,13.422 11.538,13.455 L11.790,13.505 C11.817,13.505 11.860,13.496 11.921,13.475 C11.981,13.455 12.024,13.432 12.051,13.405 L13.198,12.238 C13.439,12.023 13.721,11.916 14.043,11.916 C14.271,11.916 14.452,11.956 14.586,12.036 L14.606,12.036 L18.488,14.331 C18.769,14.505 18.937,14.727 18.991,14.995 Z" class="cls-1"/>
</svg>
