<svg xmlns="http://www.w3.org/2000/svg" xmlns:xlink="http://www.w3.org/1999/xlink" preserveAspectRatio="xMidYMid" width="65" height="50" viewBox="0 0 65 50">
  <defs>
    <style>
      .cls-1 {
        fill: #d83a3a;
        fill-rule: evenodd;
      }
    </style>
  </defs>
  <path d="M32.500,18.750 C27.115,18.750 22.750,22.948 22.750,28.125 C22.750,33.303 27.115,37.500 32.500,37.500 C37.884,37.500 42.250,33.303 42.250,28.125 C42.250,22.948 37.884,18.750 32.500,18.750 ZM58.500,9.375 L50.700,9.375 C49.627,9.375 48.472,8.575 48.133,7.596 L46.117,1.778 C45.777,0.800 44.623,0.000 43.550,0.000 L21.450,0.000 C20.377,0.000 19.222,0.800 18.883,1.778 L16.867,7.597 C16.527,8.575 15.372,9.375 14.300,9.375 L6.500,9.375 C2.925,9.375 -0.000,12.187 -0.000,15.625 L-0.000,43.750 C-0.000,47.188 2.925,50.000 6.500,50.000 L58.500,50.000 C62.075,50.000 65.000,47.188 65.000,43.750 L65.000,15.625 C65.000,12.187 62.075,9.375 58.500,9.375 ZM32.500,43.750 C23.525,43.750 16.250,36.754 16.250,28.125 C16.250,19.496 23.525,12.500 32.500,12.500 C41.473,12.500 48.750,19.496 48.750,28.125 C48.750,36.754 41.473,43.750 32.500,43.750 ZM56.225,19.996 C54.969,19.996 53.950,19.017 53.950,17.808 C53.950,16.600 54.969,15.621 56.225,15.621 C57.482,15.621 58.500,16.600 58.500,17.808 C58.500,19.017 57.482,19.996 56.225,19.996 Z" class="cls-1"/>
</svg>
