<svg xmlns="http://www.w3.org/2000/svg" xmlns:xlink="http://www.w3.org/1999/xlink" preserveAspectRatio="xMidYMid" width="55.969" height="58" viewBox="0 0 55.969 58">
  <defs>
    <style>
      .cls-1 {
        fill: #d83a3a;
        fill-rule: evenodd;
      }
    </style>
  </defs>
  <path d="M54.143,28.343 C52.238,26.549 49.610,26.113 47.288,25.734 C46.923,25.672 46.563,25.612 46.209,25.549 C45.948,25.480 45.613,25.406 45.275,25.326 C42.181,24.616 39.994,23.921 39.987,21.416 C39.980,19.767 40.531,18.241 41.111,16.620 C41.777,14.766 42.466,12.845 42.357,10.610 C42.146,6.627 40.438,3.161 37.778,1.334 C36.718,0.497 35.325,0.000 33.995,0.000 C32.021,0.000 30.547,1.062 29.948,2.911 C29.525,4.158 29.597,5.370 29.672,6.653 C29.686,6.968 29.710,7.293 29.719,7.630 C29.794,9.398 29.579,10.859 29.056,12.238 C28.067,14.995 26.082,17.563 24.461,19.499 L23.576,20.599 C22.337,22.145 21.057,23.744 19.602,25.027 C18.887,25.586 18.124,25.788 17.144,25.996 C16.867,26.015 0.014,26.179 0.014,26.179 L0.014,50.671 C0.014,50.671 13.232,50.654 13.975,50.610 C14.627,50.573 15.255,50.536 15.831,50.536 L16.098,50.536 C16.643,50.650 17.193,50.708 17.767,50.771 C18.276,50.824 18.804,50.881 19.358,50.985 C19.980,51.104 20.623,51.702 21.246,52.286 C21.605,52.623 21.959,52.946 22.309,53.193 C22.666,53.440 23.011,53.690 23.365,53.943 C24.445,54.719 25.565,55.527 26.833,56.089 C28.398,56.754 30.127,56.973 31.802,57.186 C32.617,57.292 33.424,57.389 34.197,57.543 C34.704,57.600 35.139,57.649 35.579,57.699 C36.890,57.844 38.246,58.000 39.607,58.000 C40.523,58.000 41.333,57.928 42.079,57.781 C44.757,57.028 46.461,54.881 46.463,52.415 C47.824,51.879 49.041,50.755 49.811,49.317 C50.498,48.030 50.729,46.652 50.480,45.433 C53.065,43.762 54.400,40.625 53.681,37.935 C54.823,37.158 55.611,35.857 55.883,34.275 C56.262,32.081 55.578,29.752 54.143,28.343 ZM52.397,33.248 C52.310,34.002 51.961,34.933 50.801,35.142 C50.176,35.319 49.757,35.680 49.557,36.185 C49.313,36.795 49.403,37.560 49.803,38.215 C50.222,38.707 50.289,39.737 50.040,40.635 C49.700,41.700 48.912,42.456 47.695,42.863 C47.176,42.927 46.710,43.284 46.456,43.826 C46.166,44.445 46.230,45.114 46.628,45.578 C46.973,46.067 46.907,47.167 46.431,48.074 C46.055,48.789 45.518,49.219 44.995,49.219 C44.922,49.219 44.848,49.210 44.773,49.192 L44.691,49.176 L44.607,49.176 C43.968,49.176 43.134,49.452 42.722,50.085 C42.450,50.499 42.412,51.001 42.618,51.468 C42.872,52.145 42.845,52.916 42.529,53.434 C42.299,53.812 41.934,54.031 41.440,54.095 C40.565,54.326 39.693,54.326 38.848,54.326 C36.335,54.102 33.668,53.862 31.091,53.403 L29.863,53.129 C29.224,52.988 28.594,52.851 28.034,52.711 C27.112,52.262 26.080,51.492 25.084,50.745 C24.753,50.499 24.430,50.254 24.111,50.028 C23.878,49.845 23.625,49.608 23.369,49.370 C22.712,48.760 21.977,48.074 21.061,47.824 C20.200,47.298 19.281,47.298 18.537,47.298 C16.135,47.079 15.002,46.220 14.418,44.140 C13.842,42.045 13.822,39.652 13.855,37.577 L13.863,37.114 C13.881,35.160 13.912,32.715 14.925,30.940 C15.430,30.093 16.434,29.913 17.598,29.694 C19.208,29.435 20.474,28.911 21.658,28.012 C21.825,27.952 22.000,27.829 22.128,27.598 C22.610,27.270 23.004,26.794 23.363,26.365 C25.269,24.320 27.022,22.185 28.400,20.224 C28.722,19.752 29.044,19.299 29.361,18.850 C30.825,16.780 32.343,14.640 32.987,12.002 C33.446,10.061 33.401,8.381 33.299,6.389 L33.284,6.092 C33.205,4.879 33.188,3.574 33.879,3.478 C33.927,3.470 33.984,3.464 34.040,3.464 C35.162,3.464 36.578,4.863 37.420,6.159 C38.297,7.805 38.755,9.528 38.708,11.089 C38.662,12.710 38.129,14.243 37.563,15.868 C36.895,17.788 36.204,19.776 36.363,21.939 C36.593,24.884 38.957,27.430 42.248,28.275 C43.209,28.521 44.229,28.687 45.214,28.845 C47.050,29.140 48.948,29.446 50.498,30.305 C51.511,30.806 52.589,31.862 52.397,33.248 Z" class="cls-1"/>
</svg>
