<svg xmlns="http://www.w3.org/2000/svg" xmlns:xlink="http://www.w3.org/1999/xlink" preserveAspectRatio="xMidYMid" width="75" height="28" viewBox="0 0 75 28">
  <defs>
    <style>
      .cls-1 {
        fill: #d83a3a;
        fill-rule: evenodd;
      }
    </style>
  </defs>
  <path d="M74.251,9.310 L72.848,9.310 C72.826,9.211 72.805,9.105 72.780,9.023 C71.260,3.971 66.697,1.692 62.763,1.028 C61.084,0.489 57.528,0.312 52.852,0.284 L52.852,0.006 L22.468,0.006 L22.468,0.283 C17.638,0.307 13.950,0.476 12.228,1.028 C8.299,1.696 3.734,3.973 2.216,9.023 C2.191,9.106 2.169,9.213 2.147,9.312 L0.745,9.312 C0.329,9.310 -0.005,9.650 -0.005,10.067 L-0.005,11.390 C-0.005,11.809 0.327,12.146 0.745,12.146 L1.927,12.146 C1.979,15.459 2.844,20.292 5.402,23.773 C8.437,26.556 11.550,28.006 15.332,28.006 C21.774,28.004 28.299,24.022 30.473,20.458 C31.951,18.040 33.522,15.464 34.139,13.634 L34.220,13.384 C34.465,12.655 34.746,12.249 34.860,11.671 C35.010,10.924 35.042,10.033 35.003,9.125 L39.989,9.125 C39.950,10.032 39.983,10.924 40.132,11.671 C40.247,12.249 40.528,12.655 40.771,13.384 L40.854,13.634 C41.466,15.464 43.039,18.040 44.516,20.458 C46.694,24.022 53.214,28.004 59.660,28.006 C63.443,28.006 66.555,26.556 69.591,23.773 C72.149,20.292 73.010,15.461 73.061,12.146 L74.248,12.146 C74.662,12.146 74.998,11.809 74.998,11.390 L74.998,10.067 C75.001,9.650 74.664,9.310 74.251,9.310 ZM40.338,6.382 L34.658,6.382 C34.477,5.559 34.250,4.853 33.997,4.433 L31.070,2.244 C30.938,2.192 30.007,1.514 29.220,0.997 L45.775,0.997 C44.991,1.517 44.060,2.192 43.925,2.244 L41.000,4.433 C40.746,4.853 40.517,5.559 40.338,6.382 Z" class="cls-1"/>
</svg>
