<svg xmlns="http://www.w3.org/2000/svg" xmlns:xlink="http://www.w3.org/1999/xlink" preserveAspectRatio="xMidYMid" width="40" height="34" viewBox="0 0 40 34">
  <defs>
    <style>
      .cls-1 {
        fill: #46b0dc;
        fill-rule: evenodd;
      }
    </style>
  </defs>
  <path d="M21.419,0.000 C11.156,0.000 2.837,7.611 2.837,17.000 C2.837,19.551 3.452,21.969 4.552,24.141 L0.157,32.022 C-0.087,32.460 -0.043,33.000 0.269,33.393 C0.510,33.697 0.876,33.868 1.255,33.868 C1.365,33.868 1.477,33.853 1.587,33.823 L11.208,31.205 C14.138,32.971 17.647,34.000 21.419,34.000 C31.681,34.000 40.000,26.389 40.000,17.000 C40.000,7.611 31.681,0.000 21.419,0.000 ZM21.387,25.734 C20.373,25.734 19.548,24.916 19.548,23.910 C19.548,22.905 20.373,22.086 21.387,22.086 C22.402,22.086 23.226,22.905 23.226,23.910 C23.227,24.916 22.402,25.734 21.387,25.734 ZM23.314,17.059 C23.073,17.222 22.906,17.343 22.815,17.419 L22.815,19.325 C22.815,20.105 22.175,20.740 21.388,20.740 C20.600,20.740 19.960,20.105 19.960,19.325 L19.960,17.271 C19.960,15.902 20.968,15.220 21.703,14.721 C22.497,14.183 23.022,13.828 23.022,12.718 C23.022,11.824 22.289,11.098 21.388,11.098 C20.486,11.098 19.753,11.824 19.753,12.718 C19.753,13.499 19.113,14.133 18.326,14.133 C17.539,14.133 16.898,13.499 16.898,12.718 C16.898,10.263 18.912,8.266 21.388,8.266 C23.863,8.266 25.877,10.263 25.877,12.718 C25.877,15.322 24.273,16.409 23.314,17.059 Z" class="cls-1"/>
</svg>
