<svg xmlns="http://www.w3.org/2000/svg" xmlns:xlink="http://www.w3.org/1999/xlink" preserveAspectRatio="xMidYMid" width="35" height="50" viewBox="0 0 35 50">
  <defs>
    <style>
      .cls-1 {
        fill: #337ba0;
        fill-rule: evenodd;
      }
    </style>
  </defs>
  <path d="M16.359,49.226 C16.622,49.519 16.873,49.705 17.117,49.837 L17.129,49.843 L17.620,49.996 L18.109,49.843 L18.123,49.837 C18.365,49.705 18.619,49.519 18.881,49.226 C18.881,49.226 33.392,33.407 34.849,19.701 C34.937,18.993 34.995,18.277 34.995,17.548 C34.995,7.859 27.160,0.004 17.495,0.004 C7.829,0.004 -0.007,7.859 -0.007,17.548 C-0.007,18.289 0.053,19.013 0.143,19.730 C1.638,33.432 16.359,49.226 16.359,49.226 ZM17.495,6.263 C23.703,6.263 28.751,11.327 28.751,17.548 C28.751,23.768 23.703,28.832 17.495,28.832 C11.289,28.832 6.237,23.768 6.237,17.548 C6.237,11.327 11.289,6.263 17.495,6.263 Z" class="cls-1"/>
</svg>
