<svg xmlns="http://www.w3.org/2000/svg" xmlns:xlink="http://www.w3.org/1999/xlink" preserveAspectRatio="xMidYMid" width="72" height="34" viewBox="0 0 72 34">
  <defs>
    <style>
      .cls-1 {
        fill: #d83a3a;
        fill-rule: evenodd;
      }
    </style>
  </defs>
  <path d="M56.363,33.998 C47.742,33.998 40.728,26.770 40.728,17.885 C40.728,9.000 47.742,1.772 56.363,1.772 C64.984,1.772 71.997,9.000 71.997,17.885 C71.997,26.770 64.984,33.998 56.363,33.998 ZM56.363,7.708 C50.918,7.708 46.488,12.274 46.488,17.885 C46.488,23.497 50.918,28.062 56.363,28.062 C61.808,28.062 66.237,23.497 66.237,17.885 C66.237,12.274 61.808,7.708 56.363,7.708 ZM62.491,22.186 C63.272,19.502 62.839,16.484 61.051,14.097 C59.263,11.709 56.541,10.511 53.823,10.610 C56.848,9.080 60.600,9.898 62.739,12.754 C64.877,15.611 64.694,19.558 62.491,22.186 ZM38.657,17.250 C38.657,20.311 39.441,23.183 40.801,25.677 L36.010,25.677 L35.991,25.677 L31.199,25.677 C32.560,23.183 33.343,20.310 33.343,17.250 C33.343,9.800 28.733,3.454 22.307,1.036 C23.741,0.631 25.361,0.265 27.178,0.005 C28.329,1.709 33.195,2.928 35.993,2.928 L36.009,2.928 C38.807,2.928 43.672,1.708 44.824,0.005 C46.642,0.265 48.261,0.631 49.695,1.036 C43.269,3.454 38.659,9.800 38.657,17.250 ZM15.639,33.998 C7.018,33.998 0.004,26.770 0.004,17.885 C0.004,9.000 7.018,1.772 15.639,1.772 C24.259,1.772 31.273,9.000 31.273,17.885 C31.273,26.770 24.259,33.998 15.639,33.998 ZM15.639,7.708 C10.194,7.708 5.765,12.274 5.765,17.885 C5.765,23.497 10.194,28.062 15.639,28.062 C21.083,28.062 25.513,23.497 25.513,17.885 C25.513,12.274 21.083,7.708 15.639,7.708 ZM10.950,14.097 C9.163,16.484 8.729,19.502 9.511,22.186 C7.307,19.558 7.124,15.611 9.263,12.754 C11.402,9.898 15.153,9.080 18.179,10.610 C15.461,10.511 12.738,11.709 10.950,14.097 Z" class="cls-1"/>
</svg>
